<svg width="115" height="117" viewBox="0 0 115 117" fill="none" xmlns="http://www.w3.org/2000/svg">
<ellipse opacity="0.5" cx="57.807" cy="58.32" rx="57.1615" ry="58.32" fill="#F5CA3D"/>
<path d="M38.3125 77.875C37.3625 77.875 36.5312 77.5187 35.8188 76.8062C35.1062 76.0938 34.75 75.2625 34.75 74.3125V45.2781C34.75 44.3281 35.1062 43.4969 35.8188 42.7844C36.5312 42.0719 37.3625 41.7156 38.3125 41.7156H49.5938V36.3125C49.5938 35.3625 49.95 34.5312 50.6625 33.8188C51.375 33.1062 52.2062 32.75 53.1562 32.75H63.8438C64.7937 32.75 65.625 33.1062 66.3375 33.8188C67.05 34.5312 67.4062 35.3625 67.4062 36.3125V41.7156H78.6875C79.6375 41.7156 80.4688 42.0719 81.1812 42.7844C81.8937 43.4969 82.25 44.3281 82.25 45.2781V74.3125C82.25 75.2625 81.8937 76.0938 81.1812 76.8062C80.4688 77.5187 79.6375 77.875 78.6875 77.875H38.3125ZM53.1562 41.7156H63.8438V36.3125H53.1562V41.7156ZM78.6875 62.9719H63.9031V66.5344H53.2156V62.9719H38.3125V74.3125H78.6875V62.9719ZM56.7781 62.9719H60.3406V59.4094H56.7781V62.9719ZM38.3125 59.4094H53.2156V55.8469H63.9031V59.4094H78.6875V45.2781H38.3125V59.4094Z" fill="black"/>
</svg>
