<svg width="115" height="117" viewBox="0 0 115 117" fill="none" xmlns="http://www.w3.org/2000/svg">
<ellipse opacity="0.5" cx="57.807" cy="58.32" rx="57.1615" ry="58.32" fill="#F5CA3D"/>
<g clip-path="url(#clip0_32_928)">
<path d="M26 74.2501V70.5512C26 68.7567 26.951 67.2961 28.8531 66.1694C30.7552 65.0426 33.2503 64.4793 36.3384 64.4793C36.8959 64.4793 37.432 64.4909 37.9468 64.5142C38.4614 64.5374 38.9708 64.5875 39.475 64.6644C39.1083 65.4715 38.8333 66.2896 38.65 67.1186C38.4667 67.9476 38.375 68.8126 38.375 69.7137V74.2501H26ZM42.5 74.2501V69.7137C42.5 68.2248 42.901 66.8638 43.7031 65.6309C44.5052 64.3979 45.6396 63.3161 47.1063 62.3855C48.5729 61.455 50.326 60.7571 52.3656 60.2918C54.4052 59.8265 56.6167 59.5939 59 59.5939C61.4292 59.5939 63.6635 59.8265 65.7031 60.2918C67.7427 60.7571 69.4958 61.455 70.9625 62.3855C72.4292 63.3161 73.5521 64.3979 74.3313 65.6309C75.1104 66.8638 75.5 68.2248 75.5 69.7137V74.2501H42.5ZM79.625 74.2501V69.7137C79.625 68.7896 79.5448 67.9188 79.3844 67.1013C79.224 66.2838 78.9604 65.4733 78.5938 64.6696C79.0979 64.5893 79.606 64.5374 80.118 64.5142C80.6301 64.4909 81.1532 64.4793 81.6875 64.4793C84.7813 64.4793 87.2734 65.0322 89.1641 66.1381C91.0547 67.244 92 68.715 92 70.5512V74.2501H79.625ZM46.625 70.0626H71.375V69.6439C71.375 67.9223 70.2177 66.5149 67.9031 65.4215C65.5885 64.3281 62.6208 63.7814 59 63.7814C55.3792 63.7814 52.4115 64.3281 50.0969 65.4215C47.7823 66.5149 46.625 67.9456 46.625 69.7137V70.0626ZM36.2827 62.3855C34.9734 62.3855 33.849 61.9072 32.9094 60.9505C31.9698 59.9937 31.5 58.8436 31.5 57.5001C31.5 56.1508 31.9712 54.9993 32.9136 54.0454C33.8561 53.0916 34.9891 52.6147 36.3125 52.6147C37.6417 52.6147 38.776 53.0916 39.7156 54.0454C40.6552 54.9993 41.125 56.1609 41.125 57.5303C41.125 58.8595 40.6552 60.001 39.7156 60.9548C38.776 61.9086 37.6317 62.3855 36.2827 62.3855ZM81.6577 62.3855C80.3484 62.3855 79.224 61.9072 78.2844 60.9505C77.3448 59.9937 76.875 58.8436 76.875 57.5001C76.875 56.1508 77.3462 54.9993 78.2886 54.0454C79.2311 53.0916 80.3641 52.6147 81.6875 52.6147C83.0167 52.6147 84.151 53.0916 85.0906 54.0454C86.0302 54.9993 86.5 56.1609 86.5 57.5303C86.5 58.8595 86.0302 60.001 85.0906 60.9548C84.151 61.9086 83.0067 62.3855 81.6577 62.3855ZM59 57.5001C56.7083 57.5001 54.7604 56.6859 53.1563 55.0574C51.5521 53.4289 50.75 51.4515 50.75 49.1251C50.75 46.7522 51.5521 44.7631 53.1563 43.1579C54.7604 41.5527 56.7083 40.7501 59 40.7501C61.3375 40.7501 63.2969 41.5527 64.8781 43.1579C66.4594 44.7631 67.25 46.7522 67.25 49.1251C67.25 51.4515 66.4594 53.4289 64.8781 55.0574C63.2969 56.6859 61.3375 57.5001 59 57.5001ZM59.0241 53.3126C60.1997 53.3126 61.1771 52.909 61.9563 52.1017C62.7354 51.2944 63.125 50.294 63.125 49.1006C63.125 47.9072 62.732 46.9151 61.946 46.1241C61.16 45.3331 60.1861 44.9376 59.0241 44.9376C57.8622 44.9376 56.8802 45.3366 56.0781 46.1345C55.276 46.9324 54.875 47.9211 54.875 49.1006C54.875 50.2802 55.2726 51.277 56.0679 52.0913C56.8631 52.9055 57.8486 53.3126 59.0241 53.3126Z" fill="black"/>
</g>
<defs>
<clipPath id="clip0_32_928">
<rect width="66" height="67" fill="white" transform="translate(26 24)"/>
</clipPath>
</defs>
</svg>
