<svg width="115" height="117" viewBox="0 0 115 117" fill="none" xmlns="http://www.w3.org/2000/svg">
<ellipse opacity="0.5" cx="57.807" cy="58.32" rx="57.1615" ry="58.32" fill="#F5CA3D"/>
<path d="M58.5328 53.5625C55.7984 53.5625 53.4688 52.5986 51.5437 50.6709C49.6187 48.7432 48.6562 46.4258 48.6562 43.7188C48.6562 40.9625 49.6201 38.6328 51.5478 36.7297C53.4756 34.8266 55.793 33.875 58.5 33.875C61.2562 33.875 63.5859 34.8266 65.4891 36.7297C67.3922 38.6328 68.3438 40.9516 68.3438 43.6859C68.3438 46.4203 67.3922 48.75 65.4891 50.675C63.5859 52.6 61.2672 53.5625 58.5328 53.5625ZM58.5 49.625C60.1625 49.625 61.5625 49.0467 62.7 47.89C63.8375 46.7334 64.4062 45.343 64.4062 43.7188C64.4062 42.0562 63.8375 40.6562 62.7 39.5187C61.5625 38.3812 60.1734 37.8125 58.5328 37.8125C56.8922 37.8125 55.4922 38.3812 54.3328 39.5187C53.1734 40.6562 52.5938 42.0453 52.5938 43.6859C52.5938 45.3266 53.1721 46.7266 54.3287 47.8859C55.4854 49.0453 56.8758 49.625 58.5 49.625ZM44.7516 81.125C42.0172 81.125 39.6875 80.1611 37.7625 78.2334C35.8375 76.3057 34.875 73.9883 34.875 71.2812C34.875 68.525 35.8389 66.1953 37.7666 64.2922C39.6943 62.3891 42.0117 61.4375 44.7188 61.4375C47.475 61.4375 49.8047 62.3891 51.7078 64.2922C53.6109 66.1953 54.5625 68.5141 54.5625 71.2484C54.5625 73.9828 53.6109 76.3125 51.7078 78.2375C49.8047 80.1625 47.4859 81.125 44.7516 81.125ZM44.7188 77.1875C46.3812 77.1875 47.7812 76.6092 48.9187 75.4525C50.0562 74.2959 50.625 72.9055 50.625 71.2812C50.625 69.6187 50.0562 68.2188 48.9187 67.0812C47.7812 65.9437 46.3922 65.375 44.7516 65.375C43.1109 65.375 41.7109 65.9437 40.5516 67.0812C39.3922 68.2188 38.8125 69.6078 38.8125 71.2484C38.8125 72.8891 39.3908 74.2891 40.5475 75.4484C41.7041 76.6078 43.0945 77.1875 44.7188 77.1875ZM72.3141 81.125C69.5797 81.125 67.25 80.1611 65.325 78.2334C63.4 76.3057 62.4375 73.9883 62.4375 71.2812C62.4375 68.525 63.4014 66.1953 65.3291 64.2922C67.2568 62.3891 69.5742 61.4375 72.2812 61.4375C75.0375 61.4375 77.3672 62.3891 79.2703 64.2922C81.1734 66.1953 82.125 68.5141 82.125 71.2484C82.125 73.9828 81.1734 76.3125 79.2703 78.2375C77.3672 80.1625 75.0484 81.125 72.3141 81.125ZM72.2812 77.1875C73.9437 77.1875 75.3438 76.6092 76.4812 75.4525C77.6187 74.2959 78.1875 72.9055 78.1875 71.2812C78.1875 69.6187 77.6187 68.2188 76.4812 67.0812C75.3438 65.9437 73.9547 65.375 72.3141 65.375C70.6734 65.375 69.2734 65.9437 68.1141 67.0812C66.9547 68.2188 66.375 69.6078 66.375 71.2484C66.375 72.8891 66.9533 74.2891 68.11 75.4484C69.2666 76.6078 70.657 77.1875 72.2812 77.1875Z" fill="black"/>
</svg>
