<svg width="115" height="117" viewBox="0 0 115 117" fill="none" xmlns="http://www.w3.org/2000/svg">
<ellipse opacity="0.5" cx="57.807" cy="58.32" rx="57.1615" ry="58.32" fill="#F5CA3D"/>
<path d="M43.2435 85C41.3159 85 39.6775 84.3254 38.3283 82.9761C36.979 81.6268 36.3043 79.9884 36.3043 78.0609C36.3043 76.1333 36.979 74.4949 38.3283 73.1456C39.6775 71.7964 41.3159 71.1217 43.2435 71.1217C43.8116 71.1217 44.3087 71.1725 44.7348 71.2739C45.1609 71.3754 45.5971 71.5275 46.0435 71.7304L51.2174 65.2783C50.4464 64.3449 49.858 63.2797 49.4522 62.0826C49.0464 60.8855 48.9449 59.6377 49.1478 58.3391L41.7826 55.8435C41.1739 56.858 40.3725 57.6493 39.3783 58.2174C38.3841 58.7855 37.2377 59.0696 35.9391 59.0696C34.0116 59.0696 32.3732 58.3949 31.0239 57.0457C29.6746 55.6964 29 54.058 29 52.1304C29 50.2029 29.6746 48.5645 31.0239 47.2152C32.3732 45.8659 34.0116 45.1913 35.9391 45.1913C37.8667 45.1913 39.5051 45.8659 40.8543 47.2152C42.2036 48.5645 42.8783 50.2029 42.8783 52.1304V52.3739L50.3043 54.9304C51.0348 53.6319 51.9174 52.6377 52.9522 51.9478C53.987 51.258 55.1333 50.771 56.3913 50.487V42.6348C54.8087 42.1884 53.5609 41.3159 52.6478 40.0174C51.7348 38.7188 51.2783 37.3594 51.2783 35.9391C51.2783 34.0116 51.9529 32.3732 53.3022 31.0239C54.6514 29.6746 56.2899 29 58.2174 29C60.1449 29 61.7833 29.6746 63.1326 31.0239C64.4819 32.3732 65.1565 34.0116 65.1565 35.9391C65.1565 37.3594 64.6899 38.7188 63.7565 40.0174C62.8232 41.3159 61.5855 42.1884 60.0435 42.6348V50.487C61.3014 50.771 62.458 51.258 63.513 51.9478C64.5681 52.6377 65.4609 53.6319 66.1913 54.9304L73.5565 52.3739V52.1304C73.5565 50.2029 74.2312 48.5645 75.5804 47.2152C76.9297 45.8659 78.5681 45.1913 80.4957 45.1913C82.4232 45.1913 84.0616 45.8659 85.4109 47.2152C86.7601 48.5645 87.4348 50.2029 87.4348 52.1304C87.4348 54.058 86.7601 55.6964 85.4109 57.0457C84.0616 58.3949 82.4232 59.0696 80.4957 59.0696C79.1971 59.0696 78.0406 58.7855 77.0261 58.2174C76.0116 57.6493 75.2203 56.858 74.6522 55.8435L67.287 58.3391C67.4899 59.6377 67.3986 60.8855 67.013 62.0826C66.6275 63.2797 66.029 64.3449 65.2174 65.2783L70.3913 71.7304C70.8377 71.5275 71.2739 71.3754 71.7 71.2739C72.1261 71.1725 72.6143 71.1217 73.1646 71.1217C75.1302 71.1217 76.7826 71.7964 78.1217 73.1456C79.4609 74.4949 80.1304 76.1333 80.1304 78.0609C80.1304 79.9884 79.4558 81.6268 78.1065 82.9761C76.7572 84.3254 75.1188 85 73.1913 85C71.2638 85 69.6254 84.3254 68.2761 82.9761C66.9268 81.6268 66.2522 79.9884 66.2522 78.0609C66.2522 77.2493 66.3638 76.5188 66.587 75.8696C66.8101 75.2203 67.1246 74.5913 67.5304 73.9826L62.3565 67.5304C61.0528 68.2203 59.6617 68.5652 58.1831 68.5652C56.7045 68.5652 55.3159 68.2203 54.0174 67.5304L48.9043 74.0435C49.3101 74.6522 49.6246 75.271 49.8478 75.9C50.071 76.529 50.1826 77.2493 50.1826 78.0609C50.1826 79.9884 49.508 81.6268 48.1587 82.9761C46.8094 84.3254 45.171 85 43.2435 85ZM35.9413 55.4174C36.8732 55.4174 37.6536 55.1022 38.2826 54.4718C38.9116 53.8414 39.2261 53.0602 39.2261 52.1283C39.2261 51.1964 38.9109 50.4159 38.2805 49.787C37.6501 49.158 36.8689 48.8435 35.937 48.8435C35.0051 48.8435 34.2246 49.1587 33.5957 49.7891C32.9667 50.4195 32.6522 51.2006 32.6522 52.1326C32.6522 53.0645 32.9674 53.8449 33.5978 54.4739C34.2282 55.1029 35.0093 55.4174 35.9413 55.4174ZM43.2456 81.3478C44.1775 81.3478 44.958 81.0326 45.587 80.4022C46.2159 79.7718 46.5304 78.9907 46.5304 78.0587C46.5304 77.1268 46.2152 76.3464 45.5848 75.7174C44.9544 75.0884 44.1733 74.7739 43.2413 74.7739C42.3094 74.7739 41.529 75.0891 40.9 75.7195C40.271 76.3499 39.9565 77.1311 39.9565 78.063C39.9565 78.9949 40.2717 79.7754 40.9021 80.4043C41.5325 81.0333 42.3137 81.3478 43.2456 81.3478ZM58.2195 39.2261C59.1514 39.2261 59.9319 38.9109 60.5609 38.2805C61.1899 37.6501 61.5043 36.8689 61.5043 35.937C61.5043 35.0051 61.1891 34.2246 60.5587 33.5957C59.9283 32.9667 59.1472 32.6522 58.2153 32.6522C57.2833 32.6522 56.5029 32.9674 55.8739 33.5978C55.2449 34.2282 54.9304 35.0093 54.9304 35.9413C54.9304 36.8732 55.2456 37.6536 55.876 38.2826C56.5065 38.9116 57.2876 39.2261 58.2195 39.2261ZM58.2478 64.913C59.7696 64.913 61.058 64.3754 62.113 63.3C63.1681 62.2246 63.6957 60.9261 63.6957 59.4043C63.6957 57.8826 63.1661 56.5942 62.107 55.5391C61.0478 54.4841 59.7513 53.9565 58.2174 53.9565C56.7159 53.9565 55.4275 54.4861 54.3522 55.5452C53.2768 56.6043 52.7391 57.9009 52.7391 59.4348C52.7391 60.9362 53.2768 62.2246 54.3522 63.3C55.4275 64.3754 56.7261 64.913 58.2478 64.913ZM73.1934 81.3478C74.1253 81.3478 74.9058 81.0326 75.5348 80.4022C76.1638 79.7718 76.4783 78.9907 76.4783 78.0587C76.4783 77.1268 76.1631 76.3464 75.5327 75.7174C74.9022 75.0884 74.1211 74.7739 73.1892 74.7739C72.2573 74.7739 71.4768 75.0891 70.8478 75.7195C70.2188 76.3499 69.9044 77.1311 69.9044 78.063C69.9044 78.9949 70.2196 79.7754 70.85 80.4043C71.4804 81.0333 72.2615 81.3478 73.1934 81.3478ZM80.4978 55.4174C81.4297 55.4174 82.2101 55.1022 82.8391 54.4718C83.4681 53.8414 83.7826 53.0602 83.7826 52.1283C83.7826 51.1964 83.4674 50.4159 82.837 49.787C82.2066 49.158 81.4254 48.8435 80.4935 48.8435C79.5616 48.8435 78.7812 49.1587 78.1522 49.7891C77.5232 50.4195 77.2087 51.2006 77.2087 52.1326C77.2087 53.0645 77.5239 53.8449 78.1543 54.4739C78.7847 55.1029 79.5659 55.4174 80.4978 55.4174Z" fill="black"/>
</svg>
